<?xml version="1.0" encoding="UTF-8" standalone="no"?>
<svg
   xmlns:dc="http://purl.org/dc/elements/1.1/"
   xmlns:cc="http://creativecommons.org/ns#"
   xmlns:rdf="http://www.w3.org/1999/02/22-rdf-syntax-ns#"
   xmlns:svg="http://www.w3.org/2000/svg"
   xmlns="http://www.w3.org/2000/svg"
   xmlns:sodipodi="http://sodipodi.sourceforge.net/DTD/sodipodi-0.dtd"
   xmlns:inkscape="http://www.inkscape.org/namespaces/inkscape"
   width="451.98318"
   height="333.08121"
   viewBox="0 0 451.98318 333.08121"
   version="1.1"
   id="svg8"
   sodipodi:docname="Logo.svg"
   inkscape:version="0.92.5 (2060ec1f9f, 2020-04-08)"
   style="fill:none">
  <metadata
     id="metadata14">
    <rdf:RDF>
      <cc:Work
         rdf:about="">
        <dc:format>image/svg+xml</dc:format>
        <dc:type
           rdf:resource="http://purl.org/dc/dcmitype/StillImage" />
        <dc:title></dc:title>
      </cc:Work>
    </rdf:RDF>
  </metadata>
  <defs
     id="defs12" />
  <sodipodi:namedview
     pagecolor="#ffffff"
     bordercolor="#666666"
     borderopacity="1"
     objecttolerance="10"
     gridtolerance="10"
     guidetolerance="10"
     inkscape:pageopacity="0"
     inkscape:pageshadow="2"
     inkscape:window-width="1920"
     inkscape:window-height="1057"
     id="namedview10"
     showgrid="false"
     inkscape:zoom="0.18459867"
     inkscape:cx="-2182.9017"
     inkscape:cy="-239.19942"
     inkscape:window-x="-8"
     inkscape:window-y="-8"
     inkscape:window-maximized="1"
     inkscape:current-layer="svg8"
     fit-margin-top="0"
     fit-margin-left="0"
     fit-margin-right="0"
     fit-margin-bottom="0" />
  <path
     d="M 94.5902,333.0812 C 116.7372,217.6612 105.9612,191.6492 0,147.8332 116.6142,133.2302 139.8602,114.3152 148.7872,0 c 49.925,106.3942 73.956,121.1522 185.435,94.3162 -85.76,80.359 -92.148,107.527 -32.177,205.257 -102.927,-56.729 -133.04,-53.728 -207.455,33.508 z"
     id="path2"
     style="fill:#ffffff;fill-opacity:1;stroke:none"
     inkscape:connector-curvature="0" />
  <path
     d="m 144.7542,257.4012 h 42.792 c 19.753,0 31.96,-10.787 31.96,-25.746 0,-12.828 -9.455,-21.218 -21.129,-21.662 v -0.887 c 10.52,-2.087 17.578,-9.855 17.578,-19.887 0,-13.849 -11.009,-22.727 -31.783,-22.727 h -39.418 z m 24.681,-19.709 v -19.176 h 11.896 c 7.502,0 12.074,3.551 12.074,9.943 0,6.082 -4.128,9.233 -12.429,9.233 z m 0,-34.446 v -17.4 h 10.476 c 6.125,0 10.653,3.107 10.653,8.7 0,5.593 -4.528,8.7 -11.008,8.7 z m 78.169,55.22 c 8.878,0 15.581,-3.018 19.709,-10.653 h 0.533 v 9.588 h 22.904 v -46.697 c 0,-12.607 -11.94,-22.373 -31.427,-22.373 -20.375,0 -30.407,10.654 -31.25,23.083 h 22.55 c 0.577,-4.217 3.684,-6.215 8.345,-6.215 4.261,0 7.28,1.953 7.28,5.505 v 0.177 c 0,3.951 -4.351,5.194 -15.803,6.037 -14.071,1.021 -25.035,6.703 -25.035,21.662 0,13.583 9.144,19.886 22.194,19.886 z m 7.99,-15.447 c -4.172,0 -7.102,-2.042 -7.102,-5.859 0,-3.507 2.486,-6.215 8.168,-7.103 3.906,-0.621 7.191,-1.42 9.765,-2.486 v 5.682 c 0,6.215 -5.282,9.766 -10.831,9.766 z m 71.367,-23.97 c 0.044,-6.747 3.862,-10.831 9.943,-10.831 6.17,0 9.81,4.084 9.766,10.831 v 38.352 h 24.503 v -43.501 c 0.044,-14.826 -9.322,-25.569 -23.793,-25.569 -10.032,0 -17.978,5.238 -20.952,13.85 h -0.71 v -12.962 h -23.26 v 68.182 h 24.503 z m 89.156,65.341 c 21.573,0 35.866,-9.855 35.866,-27.167 v -68.004 h -24.503 v 11.896 h -0.532 c -2.664,-6.924 -9.056,-12.784 -19.176,-12.784 -13.495,0 -26.634,10.299 -26.634,34.979 0,23.615 12.251,33.203 26.811,33.203 9.233,0 16.513,-3.906 19.176,-10.831 h 0.71 v 11.541 c 0,8.035 -4.66,10.654 -11.008,10.654 -5.638,0 -9.766,-1.687 -10.476,-6.037 h -23.615 c 0.932,13.139 12.873,22.55 33.381,22.55 z m 0.887,-45.277 c -6.747,0 -10.653,-5.682 -10.653,-15.803 0,-10.121 3.906,-16.158 10.653,-16.158 6.748,0 10.831,6.037 10.831,16.158 0,9.943 -4.083,15.803 -10.831,15.803 z"
     id="path4"
     style="fill:#ffffff;fill-opacity:1"
     inkscape:connector-curvature="0" />
  <path
     d="m 263.9702,188.4232 c -1.453,-0.121 -2.956,-0.183 -4.506,-0.183 -20.375,0 -30.407,10.654 -31.25,23.083 h 22.549 c 0.577,-4.217 3.685,-6.215 8.345,-6.215 1.36,0 2.593,0.199 3.642,0.585 -0.279,-5.903 0.123,-11.621 1.22,-17.27 z m -0.304,26.188 c -2.437,1.14 -6.633,1.741 -13.08,2.216 -14.072,1.021 -25.036,6.703 -25.036,21.662 0,13.583 9.144,19.886 22.195,19.886 8.878,0 15.58,-3.018 19.709,-10.653 h 0.532 v 9.588 h 10.478 c -5.277,-10.779 -9.254,-20.596 -11.898,-29.775 v 5.627 c 0,6.215 -5.283,9.766 -10.831,9.766 -4.173,0 -7.102,-2.042 -7.102,-5.859 0,-3.507 2.485,-6.215 8.167,-7.103 3.899,-0.62 7.179,-1.417 9.752,-2.48 -1.274,-4.428 -2.237,-8.707 -2.886,-12.875 z m -75.98,42.699 h -42.791 v -90.909 h 39.418 c 20.774,0 31.782,8.878 31.782,22.727 0,10.032 -7.058,17.8 -17.578,19.887 v 0.887 c 11.675,0.444 21.129,8.834 21.129,21.662 0,14.96 -12.207,25.746 -31.96,25.746 z m -18.111,-38.885 v 19.176 h 11.542 c 8.3,0 12.429,-3.151 12.429,-9.233 0,-6.392 -4.573,-9.943 -12.074,-9.943 z m 0,-32.67 v 17.4 h 10.121 c 6.481,0 11.009,-3.107 11.009,-8.7 0,-5.593 -4.528,-8.7 -10.654,-8.7 z"
     id="path6"
     style="clip-rule:evenodd;fill:#f97316;fill-opacity:1;fill-rule:evenodd"
     inkscape:connector-curvature="0" />
</svg>
