<svg width="970" height="486" viewBox="0 0 970 486" fill="none" xmlns="http://www.w3.org/2000/svg">
<path fill-rule="evenodd" clip-rule="evenodd" d="M211.699 4.11014C215.923 23.9055 218.696 46.7738 218.048 68.0765C217.394 89.5518 213.285 108.56 204.537 121.389C200.235 127.699 194.847 132.467 188.157 135.425C181.452 138.389 173.047 139.708 162.463 138.496C141.073 136.047 111.47 123.337 71.3611 94.5719L69.9988 96.4715C69.6344 96.2364 69.2705 96.0029 68.9071 95.7708L61.91 106.727C76.8291 116.255 92.3494 128.201 104.242 140.769C116.355 153.57 123.727 165.993 124.347 176.499C124.642 181.505 123.421 186.215 120.174 190.697C116.848 195.288 111.155 199.959 102.015 204.252C83.6267 212.888 52.7516 219.317 4.38834 221.3C2.94409 221.31 1.51028 221.329 0.0884204 221.356L0.334078 234.354C1.74013 234.327 3.15867 234.309 4.58807 234.299C25.2015 234.159 47.8884 235.807 67.7897 240.13C87.9573 244.511 104.114 251.399 112.892 260.881C117.136 265.464 119.601 270.588 120.116 276.468C120.638 282.43 119.203 289.759 114.587 298.731C105.256 316.871 83.6373 340.368 43.7428 370.131L45.9247 373.056C45.6601 373.216 45.3963 373.376 45.1332 373.536L51.8829 384.646C71.1911 372.916 94.1553 361.167 116.559 353.01C139.151 344.783 160.356 340.515 176.495 342.867C184.436 344.024 190.846 346.739 195.677 351.087C200.471 355.402 204.189 361.756 206.043 371.066C209.802 389.952 205.696 420.114 188.171 465.91C187.873 466.306 187.574 466.704 187.275 467.104L197.689 474.885C198.158 474.258 198.626 473.636 199.093 473.02C222.189 442.522 242.983 425.288 261.131 417.005C279.064 408.821 294.618 409.264 308.009 414.578C321.624 419.98 333.534 430.641 343.381 443.731C353.201 456.787 360.687 471.89 365.56 485.538L376.102 481.773L378.845 481.263C374.17 456.119 376.435 423.697 395.488 404.513C413.963 385.91 451.267 376.998 523.477 405.659L530.788 395.363C504.601 365.118 492.115 341.28 488.429 322.814C484.826 304.763 489.564 291.657 498.766 281.817C508.268 271.656 522.997 264.513 539.929 259.958C549.133 257.482 558.796 255.823 568.288 254.837C571.136 254.674 573.97 254.434 576.771 254.127C581.703 253.813 586.534 253.675 591.171 253.691L591.177 251.935C591.696 251.834 592.214 251.731 592.728 251.626L591.205 244.167L591.217 240.691C590.977 240.69 590.736 240.69 590.495 240.69L590.127 238.889C585.46 239.842 580.588 240.622 575.64 241.173C572.873 241.353 570.074 241.586 567.255 241.875C560.26 242.261 553.257 242.134 546.599 241.338C532.41 239.641 520.691 235.025 513.479 226.878C506.51 219.005 502.682 206.6 506.818 186.734C510.989 166.695 523.172 139.745 547.4 104.084L536.647 96.7784C536.293 97.3004 535.94 97.8207 535.591 98.3394C499.78 122.511 472.859 133.107 452.977 135.021C433.353 136.909 420.573 130.382 412.012 119.581C403.118 108.359 398.273 91.8496 396.536 73.207C394.811 54.6943 396.222 34.834 399.162 17.6516L386.778 14.0005C379.999 29.8613 370.449 47.0405 358.928 61.2965C347.332 75.6462 334.222 86.4393 320.473 90.5636C307.201 94.5449 292.447 92.5882 276.312 79.5707C259.863 66.3 242.079 41.5566 224.014 0.15448L211.699 4.11014ZM519.587 123.713C493.678 138.629 472.121 146.238 454.223 147.961C430.499 150.244 413.3 142.135 401.824 127.655C390.682 113.596 385.433 94.1791 383.592 74.4131C382.835 66.2955 382.641 57.989 382.887 49.7747C378.675 56.6115 374.045 63.2729 369.039 69.4675C356.675 84.7679 341.533 97.8185 324.208 103.015C306.407 108.355 287.264 105.111 268.149 89.6884C255.518 79.4979 242.878 63.9973 230.355 42.1165C231.036 50.9217 231.306 59.7964 231.042 68.4721C230.359 90.888 226.09 112.857 215.278 128.713C209.8 136.746 202.613 143.247 193.414 147.314C184.23 151.375 173.433 152.837 160.985 151.412C149.041 150.044 135.431 146.004 119.945 138.885C129.511 150.43 136.578 163.087 137.324 175.734C137.789 183.62 135.777 191.319 130.702 198.324C125.707 205.219 117.991 211.111 107.541 216.019C97.8987 220.547 85.625 224.378 70.3466 227.382L70.5492 227.426C91.3826 231.952 110.85 239.539 122.432 252.049C128.369 258.462 132.268 266.214 133.067 275.333C133.858 284.369 131.556 294.163 126.147 304.678C119.183 318.217 106.789 333.49 87.897 350.783C95.8931 347.121 104.023 343.739 112.111 340.794C135.313 332.346 158.993 327.18 178.369 330.003C188.185 331.433 197.189 334.958 204.373 341.424C211.594 347.923 216.489 356.956 218.793 368.528C222.184 385.568 220.046 408.529 211.199 438.64C226.737 422.486 241.59 411.633 255.734 405.178C276.773 395.577 296.007 395.83 312.804 402.494C329.376 409.07 343.051 421.668 353.77 435.917C357.503 440.88 360.912 446.088 363.99 451.387C365.152 431.357 371.236 410.484 386.264 395.352C407.918 373.548 445.628 365.943 506.118 385.561C488.77 362.504 479.119 342.588 475.68 325.359C471.279 303.308 477.13 285.92 489.271 272.937C499.017 262.515 512.507 255.245 527.054 250.288C518.095 247.241 509.96 242.516 503.745 235.495C493.293 223.688 489.385 206.689 494.09 184.085C497.538 167.524 505.653 147.607 519.587 123.713Z" fill="#FDBA8C"/>
<path d="M261.5 395H360.091C405.602 395 433.727 370.148 433.727 335.682C433.727 306.125 411.943 286.795 385.045 285.773V283.727C409.284 278.92 425.545 261.023 425.545 237.909C425.545 206 400.182 185.545 352.318 185.545H261.5V395ZM318.364 349.591V305.409H345.773C363.057 305.409 373.591 313.591 373.591 328.318C373.591 342.33 364.08 349.591 344.955 349.591H318.364ZM318.364 270.227V230.136H342.5C356.614 230.136 367.045 237.295 367.045 250.182C367.045 263.068 356.614 270.227 341.682 270.227H318.364ZM498.466 397.455C518.92 397.455 534.364 390.5 543.875 372.909H545.102V395H597.875V287.409C597.875 258.364 570.364 235.864 525.466 235.864C478.523 235.864 455.409 260.409 453.466 289.045H505.42C506.75 279.33 513.909 274.727 524.648 274.727C534.466 274.727 541.42 279.227 541.42 287.409V287.818C541.42 296.92 531.398 299.784 505.011 301.727C472.591 304.08 447.33 317.17 447.33 351.636C447.33 382.932 468.398 397.455 498.466 397.455ZM516.875 361.864C507.261 361.864 500.511 357.159 500.511 348.364C500.511 340.284 506.239 334.045 519.33 332C528.33 330.568 535.898 328.727 541.83 326.273V339.364C541.83 353.682 529.659 361.864 516.875 361.864ZM681.304 306.636C681.406 291.091 690.202 281.682 704.213 281.682C718.429 281.682 726.815 291.091 726.713 306.636V395H783.168V294.773C783.27 260.614 761.69 235.864 728.349 235.864C705.236 235.864 686.929 247.932 680.077 267.773H678.44V237.909H624.849V395H681.304V306.636ZM886.719 457.182C936.423 457.182 969.355 434.477 969.355 394.591V237.909H912.901V265.318H911.673C905.537 249.364 890.81 235.864 867.491 235.864C836.401 235.864 806.128 259.591 806.128 316.455C806.128 370.864 834.355 392.955 867.901 392.955C889.173 392.955 905.946 383.955 912.082 368H913.719V394.591C913.719 413.102 902.98 419.136 888.355 419.136C875.366 419.136 865.855 415.25 864.219 405.227H809.81C811.957 435.5 839.469 457.182 886.719 457.182ZM888.764 352.864C873.219 352.864 864.219 339.773 864.219 316.455C864.219 293.136 873.219 279.227 888.764 279.227C904.31 279.227 913.719 293.136 913.719 316.455C913.719 339.364 904.31 352.864 888.764 352.864Z" fill="#FF5A1F"/>
</svg>
