<svg width="485" height="452" viewBox="0 0 485 452" fill="none" xmlns="http://www.w3.org/2000/svg">
<path d="M126.695 391.68C148.842 276.26 138.066 250.248 32.1048 206.432C148.719 191.829 171.965 172.914 180.892 58.5988C230.817 164.993 254.848 179.751 366.327 152.915C280.567 233.274 274.179 260.442 334.15 358.172C231.223 301.443 201.11 304.444 126.695 391.68Z" fill="#F97316" stroke="#F97316"/>
<path d="M176.859 316H219.651C239.404 316 251.611 305.213 251.611 290.254C251.611 277.426 242.156 269.036 230.482 268.592V267.705C241.002 265.618 248.06 257.85 248.06 247.818C248.06 233.969 237.051 225.091 216.277 225.091H176.859V316ZM201.54 296.291V277.115H213.436C220.938 277.115 225.51 280.666 225.51 287.058C225.51 293.14 221.382 296.291 213.081 296.291H201.54ZM201.54 261.845V244.445H212.016C218.141 244.445 222.669 247.552 222.669 253.145C222.669 258.738 218.141 261.845 211.661 261.845H201.54ZM279.709 317.065C288.587 317.065 295.29 314.047 299.418 306.412H299.951V316H322.855V269.303C322.855 256.696 310.915 246.93 291.428 246.93C271.053 246.93 261.021 257.584 260.178 270.013H282.728C283.305 265.796 286.412 263.798 291.073 263.798C295.334 263.798 298.353 265.751 298.353 269.303V269.48C298.353 273.431 294.002 274.674 282.55 275.517C268.479 276.538 257.515 282.22 257.515 297.179C257.515 310.762 266.659 317.065 279.709 317.065ZM287.699 301.618C283.527 301.618 280.597 299.576 280.597 295.759C280.597 292.252 283.083 289.544 288.765 288.656C292.671 288.035 295.956 287.236 298.53 286.17V291.852C298.53 298.067 293.248 301.618 287.699 301.618ZM359.066 277.648C359.11 270.901 362.928 266.817 369.009 266.817C375.179 266.817 378.819 270.901 378.775 277.648V316H403.278V272.499C403.322 257.673 393.956 246.93 379.485 246.93C369.453 246.93 361.507 252.168 358.533 260.78H357.823V247.818H334.563V316H359.066V277.648ZM448.222 342.989C469.795 342.989 484.088 333.134 484.088 315.822V247.818H459.585V259.714H459.053C456.389 252.79 449.997 246.93 439.877 246.93C426.382 246.93 413.243 257.229 413.243 281.909C413.243 305.524 425.494 315.112 440.054 315.112C449.287 315.112 456.567 311.206 459.23 304.281H459.94V315.822C459.94 323.857 455.28 326.476 448.932 326.476C443.294 326.476 439.166 324.789 438.456 320.439H414.841C415.773 333.578 427.714 342.989 448.222 342.989ZM449.109 297.712C442.362 297.712 438.456 292.03 438.456 281.909C438.456 271.788 442.362 265.751 449.109 265.751C455.857 265.751 459.94 271.788 459.94 281.909C459.94 291.852 455.857 297.712 449.109 297.712Z" fill="#F97316"/>
<path fill-rule="evenodd" clip-rule="evenodd" d="M296.075 247.022C294.622 246.901 293.119 246.839 291.569 246.839C271.194 246.839 261.162 257.493 260.319 269.922H282.868C283.445 265.705 286.553 263.707 291.213 263.707C292.573 263.707 293.806 263.906 294.855 264.292C294.576 258.389 294.978 252.671 296.075 247.022ZM295.771 273.21C293.334 274.35 289.138 274.951 282.691 275.426C268.619 276.447 257.655 282.129 257.655 297.088C257.655 310.671 266.799 316.974 279.85 316.974C288.728 316.974 295.43 313.956 299.559 306.321H300.091V315.909H310.569C305.292 305.13 301.315 295.313 298.671 286.134V291.761C298.671 297.976 293.388 301.527 287.84 301.527C283.667 301.527 280.738 299.485 280.738 295.668C280.738 292.161 283.223 289.453 288.905 288.565C292.804 287.945 296.084 287.148 298.657 286.085C297.383 281.657 296.42 277.378 295.771 273.21ZM219.791 315.909H177V225H216.418C237.192 225 248.2 233.878 248.2 247.727C248.2 257.759 241.142 265.527 230.622 267.614V268.501C242.297 268.945 251.751 277.335 251.751 290.163C251.751 305.123 239.544 315.909 219.791 315.909ZM201.68 277.024V296.2H213.222C221.522 296.2 225.651 293.049 225.651 286.967C225.651 280.575 221.078 277.024 213.577 277.024H201.68ZM201.68 244.354V261.754H211.801C218.282 261.754 222.81 258.647 222.81 253.054C222.81 247.461 218.282 244.354 212.156 244.354H201.68Z" fill="white"/>
</svg>
